<svg width="25" height="24" viewBox="0 0 25 24" fill="none" xmlns="http://www.w3.org/2000/svg">
<path d="M9.64703 22H15.647C20.647 22 22.647 20 22.647 15V9C22.647 4 20.647 2 15.647 2H9.64703C4.64703 2 2.64703 4 2.64703 9V15C2.64703 20 4.64703 22 9.64703 22Z" stroke="#1B1B1B" stroke-width="1.5" stroke-linecap="round" stroke-linejoin="round"/>
<path d="M9.64703 10C10.7516 10 11.647 9.10457 11.647 8C11.647 6.89543 10.7516 6 9.64703 6C8.54246 6 7.64703 6.89543 7.64703 8C7.64703 9.10457 8.54246 10 9.64703 10Z" stroke="#1B1B1B" stroke-width="1.5" stroke-linecap="round" stroke-linejoin="round"/>
<path d="M3.31703 18.95L8.24703 15.64C9.03703 15.11 10.177 15.17 10.887 15.78L11.217 16.07C11.997 16.74 13.257 16.74 14.037 16.07L18.197 12.5C18.977 11.83 20.237 11.83 21.017 12.5L22.647 13.9" stroke="#1B1B1B" stroke-width="1.5" stroke-linecap="round" stroke-linejoin="round"/>
</svg>
