<svg width="25" height="24" viewBox="0 0 25 24" fill="none" xmlns="http://www.w3.org/2000/svg">
<path d="M2.93704 7.78V17.51C2.93704 19.41 4.28704 20.19 5.92704 19.25L8.27704 17.91C8.78704 17.62 9.63704 17.59 10.167 17.86L15.417 20.49C15.947 20.75 16.797 20.73 17.307 20.44L21.637 17.96C22.187 17.64 22.647 16.86 22.647 16.22V6.49C22.647 4.59 21.297 3.81 19.657 4.75L17.307 6.09C16.797 6.38 15.947 6.41 15.417 6.14L10.167 3.52C9.63704 3.26 8.78704 3.28 8.27704 3.57L3.94704 6.05C3.38704 6.37 2.93704 7.15 2.93704 7.78Z" stroke="#1B1B1B" stroke-width="1.5" stroke-linecap="round" stroke-linejoin="round"/>
<path d="M9.20703 4V17" stroke="#1B1B1B" stroke-width="1.5" stroke-linecap="round" stroke-linejoin="round"/>
<path d="M16.377 6.62V20" stroke="#1B1B1B" stroke-width="1.5" stroke-linecap="round" stroke-linejoin="round"/>
</svg>
