<svg width="25" height="24" viewBox="0 0 25 24" fill="none" xmlns="http://www.w3.org/2000/svg">
<path d="M9.14703 19H8.64703C4.64703 19 2.64703 18 2.64703 13V8C2.64703 4 4.64703 2 8.64703 2H16.647C20.647 2 22.647 4 22.647 8V13C22.647 17 20.647 19 16.647 19H16.147C15.837 19 15.537 19.15 15.347 19.4L13.847 21.4C13.187 22.28 12.107 22.28 11.447 21.4L9.94703 19.4C9.78703 19.18 9.41703 19 9.14703 19Z" stroke="#1B1B1B" stroke-width="1.5" stroke-miterlimit="10" stroke-linecap="round" stroke-linejoin="round"/>
<path d="M7.64703 8H17.647" stroke="#1B1B1B" stroke-width="1.5" stroke-linecap="round" stroke-linejoin="round"/>
<path d="M7.64703 13H13.647" stroke="#1B1B1B" stroke-width="1.5" stroke-linecap="round" stroke-linejoin="round"/>
</svg>
