<svg width="25" height="24" viewBox="0 0 25 24" fill="none" xmlns="http://www.w3.org/2000/svg">
<path d="M12.647 6.44V9.77" stroke="#1B1B1B" stroke-width="1.5" stroke-miterlimit="10" stroke-linecap="round"/>
<path d="M12.667 2C8.98704 2 6.00704 4.98 6.00704 8.66V10.76C6.00704 11.44 5.72704 12.46 5.37704 13.04L4.10704 15.16C3.32704 16.47 3.86704 17.93 5.30704 18.41C10.087 20 15.257 20 20.037 18.41C21.387 17.96 21.967 16.38 21.237 15.16L19.967 13.04C19.617 12.46 19.337 11.43 19.337 10.76V8.66C19.327 5 16.327 2 12.667 2Z" stroke="#1B1B1B" stroke-width="1.5" stroke-miterlimit="10" stroke-linecap="round"/>
<path d="M15.977 18.82C15.977 20.65 14.477 22.15 12.647 22.15C11.737 22.15 10.897 21.77 10.297 21.17C9.69703 20.57 9.31703 19.73 9.31703 18.82" stroke="#1B1B1B" stroke-width="1.5" stroke-miterlimit="10"/>
<circle cx="18.647" cy="6" r="4.75" fill="#CC0000" stroke="white" stroke-width="1.5"/>
</svg>
