<svg width="25" height="24" viewBox="0 0 25 24" fill="none" xmlns="http://www.w3.org/2000/svg">
<path d="M11.297 19.11V4.89C11.297 3.54 10.727 3 9.28703 3H5.65703C4.21703 3 3.64703 3.54 3.64703 4.89V19.11C3.64703 20.46 4.21703 21 5.65703 21H9.28703C10.727 21 11.297 20.46 11.297 19.11Z" fill="#1B1B1B"/>
<path d="M21.647 19.11V4.89C21.647 3.54 21.077 3 19.637 3H16.007C14.577 3 13.997 3.54 13.997 4.89V19.11C13.997 20.46 14.567 21 16.007 21H19.637C21.077 21 21.647 20.46 21.647 19.11Z" fill="#1B1B1B"/>
</svg>
