<svg width="25" height="24" viewBox="0 0 25 24" fill="none" xmlns="http://www.w3.org/2000/svg">
<path d="M12.647 15C14.3039 15 15.647 13.6569 15.647 12C15.647 10.3431 14.3039 9 12.647 9C10.9902 9 9.64703 10.3431 9.64703 12C9.64703 13.6569 10.9902 15 12.647 15Z" stroke="#1B1B1B" stroke-width="1.5" stroke-miterlimit="10" stroke-linecap="round" stroke-linejoin="round"/>
<path d="M2.64703 12.88V11.12C2.64703 10.08 3.49703 9.22 4.54703 9.22C6.35703 9.22 7.09703 7.94 6.18703 6.37C5.66703 5.47 5.97703 4.3 6.88703 3.78L8.61703 2.79C9.40703 2.32 10.427 2.6 10.897 3.39L11.007 3.58C11.907 5.15 13.387 5.15 14.297 3.58L14.407 3.39C14.877 2.6 15.897 2.32 16.687 2.79L18.417 3.78C19.327 4.3 19.637 5.47 19.117 6.37C18.207 7.94 18.947 9.22 20.757 9.22C21.797 9.22 22.657 10.07 22.657 11.12V12.88C22.657 13.92 21.807 14.78 20.757 14.78C18.947 14.78 18.207 16.06 19.117 17.63C19.637 18.54 19.327 19.7 18.417 20.22L16.687 21.21C15.897 21.68 14.877 21.4 14.407 20.61L14.297 20.42C13.397 18.85 11.917 18.85 11.007 20.42L10.897 20.61C10.427 21.4 9.40703 21.68 8.61703 21.21L6.88703 20.22C5.97703 19.7 5.66703 18.53 6.18703 17.63C7.09703 16.06 6.35703 14.78 4.54703 14.78C3.49703 14.78 2.64703 13.92 2.64703 12.88Z" stroke="#1B1B1B" stroke-width="1.5" stroke-miterlimit="10" stroke-linecap="round" stroke-linejoin="round"/>
</svg>
