<svg width="25" height="24" viewBox="0 0 25 24" fill="none" xmlns="http://www.w3.org/2000/svg">
<path d="M22.647 15V9C22.647 4 20.647 2 15.647 2H9.64703C4.64703 2 2.64703 4 2.64703 9V15C2.64703 20 4.64703 22 9.64703 22H15.647C20.647 22 22.647 20 22.647 15Z" stroke="#1B1B1B" stroke-width="1.5" stroke-linecap="round" stroke-linejoin="round"/>
<path d="M3.16704 7.11H22.127" stroke="#1B1B1B" stroke-width="1.5" stroke-linecap="round" stroke-linejoin="round"/>
<path d="M9.16704 2.11V6.97" stroke="#1B1B1B" stroke-width="1.5" stroke-linecap="round" stroke-linejoin="round"/>
<path d="M16.127 2.11V6.52" stroke="#1B1B1B" stroke-width="1.5" stroke-linecap="round" stroke-linejoin="round"/>
<path d="M10.397 14.45V13.25C10.397 11.71 11.487 11.08 12.817 11.85L13.857 12.45L14.897 13.05C16.227 13.82 16.227 15.08 14.897 15.85L13.857 16.45L12.817 17.05C11.487 17.82 10.397 17.19 10.397 15.65V14.45V14.45Z" stroke="#1B1B1B" stroke-width="1.5" stroke-miterlimit="10" stroke-linecap="round" stroke-linejoin="round"/>
</svg>
