<svg width="31" height="32" viewBox="0 0 31 32" fill="none" xmlns="http://www.w3.org/2000/svg">
<path d="M13.2535 27.5412C12.0984 28.7641 10.6335 29.6984 8.98162 30.2121C8.04314 30.5095 7.04536 30.6665 6.00946 30.6665C4.50613 30.6665 3.07511 30.3313 1.79688 29.7323V23.0318C2.54869 23.6902 3.48687 24.0808 4.50613 24.0808C4.56966 24.0808 4.63774 24.0808 4.70127 24.072C4.71398 24.0762 4.72699 24.0762 4.73546 24.072C4.79052 24.0808 4.85012 24.0808 4.90942 24.0808C7.16002 24.0808 8.98162 21.8767 8.98162 19.1548V19.8851C8.98162 23.0573 10.6716 25.8597 13.2535 27.5412Z" fill="#0B224B"/>
<path d="M15.9698 2.87444V20.7048C15.9698 23.3457 14.9378 25.7536 13.2523 27.541C10.6705 25.8598 8.98047 23.057 8.98047 19.8852V2.87444H15.9698Z" fill="#A3413E"/>
<path d="M19.3259 21.5032V29.2059C19.1985 29.2104 19.0754 29.2144 18.948 29.2144C17.9118 29.2144 16.9098 29.0658 15.9713 28.7899C14.9905 28.5055 14.0774 28.0804 13.2539 27.5413C14.9394 25.7539 15.9713 23.3459 15.9713 20.7047V18.862C15.9713 20.2546 16.9649 21.4012 18.2304 21.5032H18.2477C18.3024 21.5116 18.3578 21.5116 18.4128 21.5116C18.4682 21.5116 18.5236 21.5116 18.5786 21.5032H19.3259Z" fill="#F3612E"/>
<path d="M22.0811 17.8223H15.9707V10.213H22.0811V17.8223Z" fill="#F3612E"/>
<path d="M29.3218 17.8223H22.082V10.213H29.3218V17.8223Z" fill="#FAA820"/>
<path d="M29.3218 28.9595H22.082V17.8214H29.3218V28.9595Z" fill="#FEC60F"/>
<path d="M29.3218 4.95495C29.3218 6.95082 27.6999 8.57275 25.6998 8.57275C23.7043 8.57275 22.082 6.95082 22.082 4.95495C22.082 2.95515 23.7043 1.33292 25.6998 1.33292C27.6999 1.33292 29.3218 2.95515 29.3218 4.95495Z" fill="#FEC60F"/>
</svg>
