<svg width="45" height="28" viewBox="0 0 45 28" fill="none" xmlns="http://www.w3.org/2000/svg">
<path d="M0.862086 7.47187H3.71921C3.80471 8.05612 4.51721 8.44087 5.32946 8.44087C6.23434 8.44087 6.79009 8.0775 6.79009 7.57875C6.79009 7.10137 6.41246 6.89475 5.30809 6.69525L3.94721 6.453C2.05909 6.12525 1.03309 5.04225 1.03309 3.432C1.03309 1.3515 2.81434 0.0405 5.26534 0.0405C8.00134 0.0405 9.53321 1.2945 9.54746 3.2895H6.79009C6.76871 2.64825 6.13459 2.27062 5.32234 2.27062C4.53146 2.27062 4.03271 2.59837 4.03271 3.11137C4.03271 3.603 4.45309 3.8595 5.42921 4.0305L6.83996 4.27275C8.83496 4.62187 9.76834 5.5695 9.76834 7.23675C9.76834 9.33862 8.00846 10.6781 5.27246 10.6781C2.51509 10.6781 0.869211 9.52387 0.862086 7.47187ZM14.2212 10.5H11.2002V0.218625H14.2212V10.5ZM18.959 10.5H15.938V0.218625H18.959V4.57912H19.016L22.1938 0.218625H25.3644L21.98 4.78575L25.5211 10.5H22.0085L19.7641 6.72375L18.959 7.80675V10.5ZM33.7859 8.09887V10.5H26.5326V0.218625H33.7859V2.61975H29.5536V4.27987H33.5222V6.44587H29.5536V8.09887H33.7859ZM35.4884 0.218625H40.1838C42.4709 0.218625 44.0099 1.67925 44.0099 3.96637C44.0099 6.23212 42.3783 7.69275 39.9772 7.69275H38.5094V10.5H35.4884V0.218625ZM38.5094 2.4915V5.46262H39.3573C40.3619 5.46262 40.9604 4.95675 40.9604 3.9735C40.9604 2.99737 40.3619 2.4915 39.3787 2.4915H38.5094ZM3.95063 19.4487V22.0565H5.19751C6.04538 22.0565 6.56551 21.5364 6.56551 20.7597C6.56551 19.9974 6.01688 19.4487 5.20463 19.4487H3.95063ZM3.95063 24.0515V27.5H0.929631V17.2186H5.49676C8.23988 17.2186 9.65063 18.5082 9.65063 20.7099C9.65063 21.9211 9.06638 23.0896 7.99051 23.6026L9.94276 27.5H6.56551L4.94101 24.0515H3.95063ZM17.5591 21.6147L16.0272 27.5H13.1772L10.5267 17.2186H13.6475L14.8302 23.7166H14.8872L16.4191 17.2186H18.7561L20.288 23.7166H20.345L21.5277 17.2186H24.6485L21.998 27.5H19.148L17.6161 21.6147H17.5591ZM29.8708 27.785C27.0921 27.785 25.3393 25.733 25.3393 22.3344C25.3393 18.9144 27.1134 16.9265 29.8708 16.9265C32.6282 16.9265 34.3952 18.9072 34.3952 22.3272C34.3952 25.7187 32.6496 27.785 29.8708 27.785ZM29.8708 25.4622C30.7116 25.4622 31.3172 24.4505 31.3172 22.3344C31.3172 20.2111 30.7116 19.2492 29.8708 19.2492C29.0301 19.2492 28.4173 20.2111 28.4173 22.3344C28.4173 24.4505 29.0301 25.4622 29.8708 25.4622ZM35.6774 20.4462C35.6774 18.3444 37.3304 16.9336 39.874 16.9336C42.3678 16.9336 43.8996 18.1947 43.8996 20.0615C43.8996 21.4722 42.7169 22.541 42.1683 23.0255L39.7529 25.163V25.22H44.0208V27.5H35.8555V25.4907L39.988 21.8356C40.6791 21.2157 40.9926 20.7241 40.9926 20.1541C40.9926 19.5984 40.5438 19.1637 39.7671 19.1637C38.9834 19.1637 38.4276 19.691 38.4276 20.4391V20.5032H35.6774V20.4462Z" fill="#0284FF"/>
</svg>
