<svg width="150" height="151" viewBox="0 0 150 151" fill="none" xmlns="http://www.w3.org/2000/svg">
<path d="M75 150.5C116.421 150.5 150 116.921 150 75.5C150 34.0786 116.421 0.5 75 0.5C33.5786 0.5 0 34.0786 0 75.5C0 116.921 33.5786 150.5 75 150.5Z" fill="#E3E3E3"/>
<path d="M120 150.5H30V53.5C34.242 53.4952 38.3089 51.808 41.3084 48.8085C44.308 45.8089 45.9952 41.742 46 37.5H104C103.996 39.6014 104.408 41.6828 105.213 43.6238C106.018 45.5648 107.2 47.3268 108.691 48.808C110.172 50.2991 111.934 51.4816 113.875 52.287C115.817 53.0924 117.898 53.5047 120 53.5V150.5Z" fill="white"/>
<path d="M75 102.5C88.2548 102.5 99 91.7548 99 78.5C99 65.2452 88.2548 54.5 75 54.5C61.7452 54.5 51 65.2452 51 78.5C51 91.7548 61.7452 102.5 75 102.5Z" fill="#0284FF"/>
<path d="M83.4853 89.8138L75 81.3286L66.5147 89.8138L63.6863 86.9854L72.1716 78.5001L63.6863 70.0148L66.5147 67.1864L75 75.6717L83.4853 67.1864L86.3137 70.0148L77.8284 78.5001L86.3137 86.9854L83.4853 89.8138Z" fill="white"/>
<path d="M88 108.5H62C60.3431 108.5 59 109.843 59 111.5C59 113.157 60.3431 114.5 62 114.5H88C89.6569 114.5 91 113.157 91 111.5C91 109.843 89.6569 108.5 88 108.5Z" fill="#CCE4FF"/>
<path d="M97 120.5H53C51.3431 120.5 50 121.843 50 123.5C50 125.157 51.3431 126.5 53 126.5H97C98.6569 126.5 100 125.157 100 123.5C100 121.843 98.6569 120.5 97 120.5Z" fill="#CCE4FF"/>
</svg>
