<svg width="20" height="20" viewBox="0 0 20 20" fill="none" xmlns="http://www.w3.org/2000/svg">
<path d="M13.491 1.66669H6.50768C3.47435 1.66669 1.66602 3.47502 1.66602 6.50835V13.4834C1.66602 16.525 3.47435 18.3334 6.50768 18.3334H13.4827C16.516 18.3334 18.3243 16.525 18.3243 13.4917V6.50835C18.3327 3.47502 16.5243 1.66669 13.491 1.66669ZM13.9827 8.08335L9.25768 12.8084C9.14102 12.925 8.98268 12.9917 8.81602 12.9917C8.64935 12.9917 8.49102 12.925 8.37435 12.8084L6.01602 10.45C5.77435 10.2084 5.77435 9.80835 6.01602 9.56669C6.25768 9.32502 6.65768 9.32502 6.89935 9.56669L8.81602 11.4834L13.0993 7.20002C13.341 6.95835 13.741 6.95835 13.9827 7.20002C14.2243 7.44169 14.2243 7.83335 13.9827 8.08335Z" fill="#0284FF"/>
<path d="M7.49935 18.3334H12.4993C16.666 18.3334 18.3327 16.6667 18.3327 12.5V7.50002C18.3327 3.33335 16.666 1.66669 12.4993 1.66669H7.49935C3.33268 1.66669 1.66602 3.33335 1.66602 7.50002V12.5C1.66602 16.6667 3.33268 18.3334 7.49935 18.3334Z" stroke="#0284FF" stroke-width="1.5" stroke-linecap="round" stroke-linejoin="round"/>
</svg>
