<svg width="25" height="24" viewBox="0 0 25 24" fill="none" xmlns="http://www.w3.org/2000/svg">
<path d="M18.647 7.16C18.587 7.15 18.517 7.15 18.457 7.16C17.077 7.11 15.977 5.98 15.977 4.58C15.977 3.15 17.127 2 18.557 2C19.987 2 21.137 3.16 21.137 4.58C21.127 5.98 20.027 7.11 18.647 7.16Z" stroke="#1B1B1B" stroke-width="1.5" stroke-linecap="round" stroke-linejoin="round"/>
<path d="M17.617 14.44C18.987 14.67 20.497 14.43 21.557 13.72C22.967 12.78 22.967 11.24 21.557 10.3C20.487 9.59001 18.957 9.35 17.587 9.59" stroke="#1B1B1B" stroke-width="1.5" stroke-linecap="round" stroke-linejoin="round"/>
<path d="M6.61703 7.16C6.67703 7.15 6.74703 7.15 6.80703 7.16C8.18703 7.11 9.28703 5.98 9.28703 4.58C9.28703 3.15 8.13703 2 6.70703 2C5.27703 2 4.12703 3.16 4.12703 4.58C4.13703 5.98 5.23703 7.11 6.61703 7.16Z" stroke="#1B1B1B" stroke-width="1.5" stroke-linecap="round" stroke-linejoin="round"/>
<path d="M7.64703 14.44C6.27703 14.67 4.76704 14.43 3.70704 13.72C2.29704 12.78 2.29704 11.24 3.70704 10.3C4.77704 9.59001 6.30703 9.35 7.67703 9.59" stroke="#1B1B1B" stroke-width="1.5" stroke-linecap="round" stroke-linejoin="round"/>
<path d="M12.647 14.63C12.587 14.62 12.517 14.62 12.457 14.63C11.077 14.58 9.97704 13.45 9.97704 12.05C9.97704 10.62 11.127 9.47 12.557 9.47C13.987 9.47 15.137 10.63 15.137 12.05C15.127 13.45 14.027 14.59 12.647 14.63Z" stroke="#1B1B1B" stroke-width="1.5" stroke-linecap="round" stroke-linejoin="round"/>
<path d="M9.73703 17.78C8.32703 18.72 8.32703 20.26 9.73703 21.2C11.337 22.27 13.957 22.27 15.557 21.2C16.967 20.26 16.967 18.72 15.557 17.78C13.967 16.72 11.337 16.72 9.73703 17.78Z" stroke="#1B1B1B" stroke-width="1.5" stroke-linecap="round" stroke-linejoin="round"/>
</svg>
